<svg xmlns="http://www.w3.org/2000/svg" width="24.016" height="24" viewBox="0 0 24.016 24">
  <g id="Groupe_906" data-name="Groupe 906" transform="translate(22506.039 825)">
    <path id="Tracé_1468" data-name="Tracé 1468" d="M47.591,49A1.591,1.591,0,0,0,46,50.591v3.58a1.591,1.591,0,0,0,3.182,0v-3.58A1.591,1.591,0,0,0,47.591,49Z" transform="translate(-22541.83 -862.764)" fill="#fff"/>
    <circle id="Ellipse_3" data-name="Ellipse 3" cx="1.591" cy="1.591" r="1.591" transform="translate(-22495.83 -818.637)" fill="#fff"/>
    <path id="Tracé_1469" data-name="Tracé 1469" d="M35.185,18.435a31.84,31.84,0,0,0-10.418,0,7.741,7.741,0,0,0-6.375,6.375,31.712,31.712,0,0,0,0,10.422,7.741,7.741,0,0,0,6.375,6.375,32.948,32.948,0,0,0,10.411-.033A7.737,7.737,0,0,0,41.561,35.2a32.136,32.136,0,0,0-.014-10.4A7.737,7.737,0,0,0,35.185,18.435ZM38.6,34.722A4.74,4.74,0,0,1,34.69,38.63a28.821,28.821,0,0,1-9.432,0,4.74,4.74,0,0,1-3.908-3.912,28.708,28.708,0,0,1,0-9.432,4.74,4.74,0,0,1,3.908-3.908,28.7,28.7,0,0,1,9.432,0A4.737,4.737,0,0,1,38.6,25.291a29.839,29.839,0,0,1,0,9.432Z" transform="translate(-22524 -843.006)" fill="#fff"/>
  </g>
</svg>
