<svg xmlns="http://www.w3.org/2000/svg" width="24" height="24" viewBox="0 0 24 24">
  <g id="Groupe_905" data-name="Groupe 905" transform="translate(21825 -176)">
    <path id="Tracé_1470" data-name="Tracé 1470" d="M38.666,19.264C36.776,18,34.511,18,30,18s-6.776,0-8.666,1.264a7.5,7.5,0,0,0-2.07,2.07C18,23.224,18,25.489,18,30s0,6.776,1.264,8.666a7.5,7.5,0,0,0,2.07,2.07C23.224,42,25.489,42,30,42s6.776,0,8.666-1.264a7.451,7.451,0,0,0,2.07-2.07C42,36.776,42,34.511,42,30s0-6.776-1.264-8.666A7.451,7.451,0,0,0,38.666,19.264ZM21.757,23A4.5,4.5,0,0,1,23,21.757C24.135,21,26.092,21,30,21s5.865,0,7,.757A4.445,4.445,0,0,1,38.242,23a5.315,5.315,0,0,1,.671,2.58,1.417,1.417,0,0,0-.21.079L31.459,29.28a3.329,3.329,0,0,1-2.921,0l-7.245-3.622a1.417,1.417,0,0,0-.21-.079A5.37,5.37,0,0,1,21.754,23ZM38.242,37A4.445,4.445,0,0,1,37,38.239C35.865,39,33.907,39,30,39s-5.865,0-7-.757A4.5,4.5,0,0,1,21.757,37C21,35.861,21,33.9,21,30V28.86l6.2,3.1a6.275,6.275,0,0,0,5.6,0L39,28.86V30c0,3.9,0,5.865-.757,7Z" transform="translate(-21843 158)" fill="#fff"/>
  </g>
</svg>
